# xmcd
#
# Track frame offsets:
# 182
# 6060
# 10230
# 14442
# 20315
# 28027
# 37022
# 42270
# 49520
# 53812
# 59965
# 72677
# 86050
# 91497
# 96980
# 101175
# 107450
# 114992
# 120675
# 125085
# 128890
# 133157
# 138342
# 144152
#
# Disc length: 2066 seconds
#
#
# Revision: 2
# Processed by: cddbd v1.5.2PL0 Copyright (c) Steve Scherf et al.
# Submitted via: FreeRIP 2.944 
#
DISCID=59081018
DTITLE=Banda Rio-Copa - Carnaval
DYEAR=1900
DGENRE=
TTITLE0=Cabeleira Do Zeze
TTITLE1=Quem Sabe, Sabe
TTITLE2=Me Da Um Dinheiro Ai
TTITLE3=Saca-rolha
TTITLE4=Turma Do Funil
TTITLE5=Trem Das Onze
TTITLE6=Recordar
TTITLE7=De Lanterna Na Mao
TTITLE8=Tristeza
TTITLE9=Atire A Primeira Pedra
TTITLE10=Festa Para Um Rei Negro
TTITLE11=Mascara Negra
TTITLE12=Cidade Maravilhosa
TTITLE13=Transplante De Corintiano
TTITLE14=Marcha Da Cueca
TTITLE15=Mamae Eu Quero
TTITLE16=Allah-la-o
TTITLE17=Exalta ao A Mangueira
TTITLE18=A Fonte Secou
TTITLE19=Madureira Chorou
TTITLE20=Todo Dia E Dia
TTITLE21=Maracangalha
TTITLE22=Enlouqueci
TTITLE23=Vem Chegando A Madrugada
EXTD=
EXTT0=
EXTT1=
EXTT2=
EXTT3=
EXTT4=
EXTT5=
EXTT6=
EXTT7=
EXTT8=
EXTT9=
EXTT10=
EXTT11=
EXTT12=
EXTT13=
EXTT14=
EXTT15=
EXTT16=
EXTT17=
EXTT18=
EXTT19=
EXTT20=
EXTT21=
EXTT22=
EXTT23=
PLAYORDER=
